<?xml version="1.0" encoding="UTF-8"?>
<svg width="60px" height="67px" viewBox="0 0 618 687" version="1.1" xmlns="http://www.w3.org/2000/svg" xmlns:xlink="http://www.w3.org/1999/xlink">
    <!-- Generator: Sketch 52.5 (67469) - http://www.bohemiancoding.com/sketch -->
    <title>IZIbyEDF_LogoVertical copie</title>
    <desc>Created with Sketch.</desc>
    <g id="Page-1" stroke="none" stroke-width="1" fill="none" fill-rule="evenodd">
        <g id="IZIbyEDF_LogoVertical-copie" transform="translate(-140.000000, -140.000000)">
            <g id="Group" transform="translate(140.000000, 140.000000)" fill-rule="nonzero">
                <path d="M433.8,504 L374.4,504 C374.6,508.7 374.4,515.2 374.4,525.5 L374.4,622.6 C374.4,632.9 374.6,641 374.4,644.1 L425,644.1 C462.8,644.1 498.9,627.7 498.9,572.5 C498.9,528.6 472.7,504 433.8,504 Z M422.5,617.5 L411.3,617.5 L411.3,529.5 L422.5,529.5 C444,529.5 461.4,540.2 461.4,572.5 C461.4,610.4 443.9,617.5 422.5,617.5 Z M579.1,530.6 C585.9,530.6 605.8,531.1 605.8,531.1 L605.8,504 L517,504 C517,504 517.2,515.2 517.2,525.5 L517.2,622.6 C517.2,632.8 517,644.1 517,644.1 L554.6,644.1 C554.6,644.1 554.1,632.8 554.1,622.6 L554.1,584.4 L579.2,584.2 C585.7,584.2 600.1,584.7 600.1,584.7 L600.1,558.9 C600.1,558.9 583.9,559.2 579.2,559.2 L554.1,558.9 L554.1,530.7 L579.1,530.7 L579.1,530.6 Z M291.9,501 C272.7,501 228,508.2 228,575.1 C228,619.7 250.5,646.3 289.9,646.3 C320.7,646.3 339.8,638.4 353.5,628.4 C351.9,626.1 340.4,605.4 338.9,603.2 C330.7,609.5 317,615.8 299.5,615.8 C281.8,615.8 268.2,604 268.2,585.4 L268.2,583.8 C268.2,583.8 301,583 312.1,583 C331,583 338.9,582.9 353.8,582.6 L353.8,572 C353.8,524.2 333.5,501 291.9,501 Z M314.2,558.9 C314.2,558.9 300.3,559.3 291.9,559.3 C283.5,559.3 268.1,558.9 268.1,558.9 L268.3,557 C268.8,548.8 271.7,530.1 292.2,530.1 C313.1,530.1 314.3,547.8 314.3,557.1 L314.3,558.9 L314.2,558.9 Z M69.1,538.3 C49,538.3 38.9,553 37.1,558 L36.7,558 L36.7,492.4 L24,492.4 L24,643.3 L36.7,643.3 L36.7,627 L37.1,627 C43.9,640.1 54.4,645.7 69.1,645.7 C97.3,645.7 111.4,622.4 111.4,592 C111.4,560.8 99.3,538.3 69.1,538.3 Z M67.1,634.8 C44.6,634.8 36.7,610.7 36.7,591.9 C36.7,573.1 43.9,549 67.1,549 C91.2,549 97.5,571.9 97.5,591.9 C97.5,611.9 91.2,634.8 67.1,634.8 Z M155.9,626.2 L155.7,626.2 L126.9,540.7 L113,540.7 L149.4,644.5 L146.8,653.6 C142.8,666.9 139.2,675.9 128.3,675.9 C123.7,675.9 121.3,675.1 118.8,674.3 L117.6,685.2 C121.8,686.2 126.7,686.8 131.3,686.8 C145.6,686.8 152.8,672.7 157.7,658.6 L198.7,540.7 L185.4,540.7 L155.9,626.2 Z" id="Shape" fill="#001A70"></path>
                <path d="M612.5,369.3 C612.5,369.3 611.6,354.9 604.7,353.7 C603.1,353.4 601.4,353.3 600.1,352.4 C599.4,352 598.9,351.3 598.4,350.7 C596.5,348.1 595.6,344.7 596.1,341.5 C593.8,341.1 591.5,340.8 589.2,340.4 C591.5,330.8 589.7,311.9 584,322.5 C578.3,333.1 561.5,360.4 560.1,349.3 C558.8,339.8 563.9,320.5 567.6,296 C567.6,296 575.3,250 583.6,193.9 C592.4,135.2 523.5,144 482.9,165.8 C480.9,166.8 480.6,171.3 480.6,171.3 C478.4,172.8 474.6,175.6 473.1,177.5 C471,180.2 471.5,186.3 471.5,186.3 C471.1,190.1 468,192.1 468,196.1 C468,202.4 468.7,208.6 471.9,213.7 C472.9,215.2 479.9,211.1 480.6,213 C480.8,215.1 481,216.3 488,214.1 C496.8,211.4 506.2,210.2 504.3,218.8 C499.9,238.4 488.2,292.5 481.7,320.5 C476,345.1 471,372.4 471,383.4 C471,449.5 560.2,442.1 591.6,418.8 C602.6,410.6 614.9,397.4 617.2,383.9 C618.2,377.5 609.7,381.1 612.5,369.3 Z M144.6,378.3 C143.7,372.3 139.8,365.6 135,362.2 C130.3,358.7 119.9,366.4 113.4,367.1 C105.7,367.9 103.5,365.9 102.5,361.5 C100.6,352.3 102.2,332.4 106.9,302.6 C109.7,285.1 116.4,242.8 122.9,196 C126.2,172.2 113.6,156.4 98.7,151.8 C85.1,147.6 71.5,148.1 52.9,154 C34.9,159.8 11.3,175.1 14.9,181.4 C11.7,183.5 6.3,188 6.7,192.2 C4,196.6 2.5,193.8 1.1,200.6 C-0.6,208.7 3.4,212 3.2,221.7 C4.6,224.2 10.7,223.9 15,222.5 C15,222.5 28.3,218.1 27.9,222.4 C27.9,222.4 28.7,223.3 29.1,223.4 C33.4,224.7 47,215 44.4,224 C41.8,233 26.1,285.9 18.5,329.6 C14.1,355 11.7,379.2 12.6,390.2 C14.9,417.8 32.4,438 67.3,438 C110.3,438 137.2,419.6 136.8,411.1 C136.7,408.2 144.5,402 145.5,399.2 C146.2,397.2 145,391.7 145,391.7 C145.4,389.5 149,388.5 150.5,384.9 C151.6,381.8 145.8,386 144.6,378.3 Z M441.7,353.8 C439.8,353.7 437.8,353.6 437.6,352 C425.9,362.6 412.3,375 395.5,375 C377.9,375 361.1,367.6 346,359.5 C335,353.6 322.5,345.6 310,340.2 C306.7,338.9 303.8,337.6 300.7,336.5 C299.6,336.1 298.5,335.7 297.4,335.4 L399.5,241.8 C422.8,220.5 433.1,203 433.1,184.2 C433.1,162.8 420.2,144.4 387.8,148.9 C387.8,148.9 387.7,148.8 387.7,148.8 C387.3,149 386.8,149.1 386.2,149.2 C385.9,149.2 385.6,149.3 385.3,149.4 C382.2,149.9 377.5,150.1 375.1,150.8 C372.1,151.8 368,152.6 363.4,153.3 C354,154.6 299.5,153 279,149.5 C257.1,145.7 233.2,141.7 223.8,140.1 L221.9,140 C216.2,139.2 209.6,138.8 202.9,139.4 C199.6,139.7 196,140.3 192.8,141.1 C189.5,141.9 186.3,143.1 183.6,144.4 C177.3,147.5 173.1,151.1 173.2,154 C173.3,156.2 175.1,157.6 173.3,158.4 C171.8,159.3 169.4,160.5 165.2,164.2 C161,167.9 161,171.4 162.9,173.2 C164.8,174.9 167.8,176.5 171.4,178.7 C178,182.6 173.4,187.2 171.4,188.2 C172,189.4 170.7,195.6 177.1,200.6 C181.4,204 181.9,211.3 182.9,212.1 C184.2,212.8 189.9,215.6 190.8,216.7 C191.7,217.9 192.2,218.7 192.4,218.8 C193.5,219.4 196,219.5 200.3,219.8 C206.3,220.3 213.7,221.2 219.7,221.2 C221.9,221.2 220.7,223.5 229.5,224.2 C248.6,225.8 270.7,224 284.5,222.2 C291.4,221.3 302.8,220.2 309.6,219.2 C312.7,218.8 318,218.6 321.1,218.1 C322.5,217.9 329.8,217.7 330.5,216.6 C312.9,242.7 286.8,260.6 263.7,281.2 C245.6,297.4 228.1,314.1 209.9,330.2 C175.6,360.6 169.8,371.6 169.8,391 C169.8,419.8 188.8,429.6 213.6,428.5 C218.9,429.7 232.9,423 255.4,411.2 C264.7,406.4 268.7,409.6 278.4,412.3 C285.4,414.2 292.3,416.8 299.1,419.2 C315.3,424.8 333.5,431.1 350.1,435.3 C371.1,440.6 386.8,440.8 402.1,436.4 C419,431.5 433.4,417.9 434.4,413.6 C434.9,411.2 435.9,408.8 436.5,406.1 C437.9,401 438.6,398.6 434.6,395.3 C436.5,394.4 438.6,392.9 440.2,391.4 C441.8,389.9 442.7,388.4 442,387.3 C439.8,383.7 437.9,380.9 436.8,376.4 C435.8,371.8 435.7,369.4 437.4,364.4 C439.2,360.7 445.9,357.6 445.7,355.4 C445.8,353.7 443.6,354 441.7,353.8 Z M165.7,1 C145.1,5 128.5,11.3 126,11.1 C123.5,10.9 117.7,3.7 115.4,3.8 C110.3,4 105.2,2.9 98.6,5.3 C88.4,9.1 83.9,11.1 76.1,18.8 C67.1,27.8 59.4,42.6 58,56 L60.1,64 C60.1,64 59.9,77.8 62.7,82 C74.3,99.2 74.1,93.9 82.9,106.8 C98.1,110.9 102.9,109.1 106.4,109.2 C122.1,109.4 125.8,104.5 131.1,96.8 C133.2,93.8 133.2,93.8 133.2,93.8 C140.9,90.5 144,86.8 149.4,72.4 C152.2,64.9 153.4,59.3 154.7,51 C154.7,51 153.6,40.3 149.4,39 C150.5,33.4 149.2,19.7 157.8,16.8 C159.4,13 161.9,11.2 170.4,8.5 C176.8,6.5 175.2,-0.9 165.7,1 Z M519.9,61.5 C515.5,75.1 526.3,100.6 537.1,101.9 C537.1,101.9 543,103.7 547.3,104.8 C551.6,105.9 557,109.6 559.8,109.7 C572.4,110.5 579.8,107.5 586.2,103 C590.8,99.8 594.3,91.7 599.8,91.9 C609.7,84.2 613.9,69.4 613.2,52.2 C613.1,49.5 611.1,38.8 611.1,38.8 C605.5,29.3 609.7,18.9 602.5,13.6 C602.5,13.6 591.9,18.3 594.5,4.8 C596,-2.7 588.8,-0.6 580,6.9 C575.8,10.5 570.6,4.4 568.1,5.1 C530.5,14.9 528.2,39.2 517.4,49 C517.3,52.5 517.2,56.5 518.9,59.9 L519.9,61.5 Z" id="Shape" fill="#FE5815"></path>
            </g>
            <g id="Group">
                <rect id="Rectangle" x="140.7" y="140.7" width="616.5" height="686.1"></rect>
                <rect id="Rectangle" x="0.6" y="0" width="896.8" height="967.4"></rect>
            </g>
        </g>
    </g>
</svg>
